#!OML:ASF H:\Terrain\Patient Classification 1\Walking\liu\liu.ASF
:FULLY-SPECIFIED
:DEGREES
1
root 8.24974 16.249 -31.1331 3.69085 6.72714 -1.44382
lowerback -5.89771 -1.85614 -2.18256
upperback -0.293574 -2.42821 3.11274
thorax 3.23217 -1.26516 4.2404
lowerneck -22.1047 -5.49842 -13.4052
upperneck 20.3828 -6.70971 13.894
head 11.2347 -2.46028 6.30012
rclavicle -6.67792e-015 3.18055e-015
rhumerus -45.679 16.2256 -89.3248
rradius 33.6205
rwrist -17.9246
rhand -29.6937 -28.5335
rfingers 7.12502
rthumb -3.02163 -58.4918
lclavicle -6.67792e-015 3.18055e-015
lhumerus -41.233 -11.4567 93.7521
lradius 24.7008
lwrist 1.33606
lhand -11.3093 -19.2475
lfingers 7.12502
lthumb 14.7226 10.2097
rfemur -19.463 0.178079 27.984
rtibia 28.0138
rfoot -13.2436 -0.368352
rtoes -8.47265
lfemur -12.1697 13.5279 -13.5878
ltibia 64.5688
lfoot -3.43176 11.8267
ltoes 2.88532
2
root 8.23778 16.2609 -31.0244 3.7098 6.26938 -1.62532
lowerback -5.83262 -1.56721 -2.00701
upperback -0.321487 -2.05464 3.13276
thorax 3.12683 -1.07424 4.19781
lowerneck -22.0656 -5.62438 -13.4567
upperneck 20.485 -6.91073 13.9801
head 11.3046 -2.54694 6.31286
rclavicle -1.10015e-014 1.03368e-014
rhumerus -45.4409 17.0434 -89.645
rradius 33.9801
rwrist -18.4514
rhand -30.525 -28.6326
rfingers 7.12502
rthumb -3.82447 -58.578
lclavicle -1.10015e-014 1.03368e-014
lhumerus -41.8324 -11.4734 93.566
lradius 25.219
lwrist 2.29261
lhand -11.8493 -19.5178
lfingers 7.12502
lthumb 14.2022 9.9767
rfemur -18.8655 0.646097 28.2231
rtibia 27.6767
rfoot -13.6454 -0.301774
rtoes -7.07591
lfemur -13.5257 13.7552 -13.6582
ltibia 65.3729
lfoot -4.09339 11.6054
ltoes 7.73245
3
root 8.22724 16.2651 -30.9194 3.63514 5.94478 -1.9656
lowerback -5.87773 -1.36057 -1.71151
upperback -0.190078 -1.80361 3.22442
thorax 3.25957 -0.949147 4.14657
lowerneck -22.1636 -5.64274 -12.9862
upperneck 20.5912 -6.9719 13.5066
head 11.332 -2.58755 6.0385
rclavicle 1.69464e-014 -2.14687e-014
rhumerus -44.5638 17.5723 -89.4242
rradius 34.143
rwrist -17.986
rhand -29.01 -29.9487
rfingers 7.12502
rthumb -2.36132 -59.9154
lclavicle 1.69464e-014 -2.14687e-014
lhumerus -42.292 -11.4913 93.3855
lradius 25.8557
lwrist 3.41305
lhand -12.3705 -19.9795
lfingers 7.12502
lthumb 13.7 9.54959
rfemur -18.1626 0.986614 28.6513
rtibia 27.3028
rfoot -14.315 -0.231837
rtoes -4.22202
lfemur -14.8303 13.9031 -13.4876
ltibia 65.9936
lfoot -4.91225 11.8388
ltoes 5.60639
4
root 8.21674 16.2657 -30.8166 3.50291 5.61107 -2.18741
lowerback -5.72988 -1.20509 -1.58076
upperback -0.0993917 -1.61186 3.37983
thorax 3.25502 -0.854074 4.25398
lowerneck -22.173 -5.665 -13.1173
upperneck 20.6052 -6.9179 13.3608
head 11.3284 -2.59054 6.01394
rclavicle 2.62147e-015 -1.43125e-014
rhumerus -43.6963 18.3561 -89.1051
rradius 34.2109
rwrist -17.6524
rhand -28.5124 -27.9976
rfingers 7.12502
rthumb -1.8808 -57.9691
lclavicle 2.62147e-015 -1.43125e-014
lhumerus -42.64 -11.0468 93.1878
lradius 26.3113
lwrist 4.24281
lhand -12.7417 -20.07
lfingers 7.12502
lthumb 13.3421 9.48281
rfemur -17.4374 1.23824 28.9648
rtibia 27.0022
rfoot -14.8372 -0.282607
rtoes -4.74553
lfemur -16.0418 14.0611 -13.4429
ltibia 66.5191
lfoot -5.93664 11.8241
ltoes 2.64492
5
root 8.20376 16.2676 -30.719 3.51054 5.24369 -2.36018
lowerback -5.60208 -1.03044 -1.4544
upperback -0.0929551 -1.38973 3.47055
thorax 3.16986 -0.740912 4.29819
lowerneck -22.0278 -5.75388 -13.6062
upperneck 20.4637 -6.95678 13.6526
head 11.2872 -2.61903 6.20037
rclavicle 1.66606e-014 1.66979e-014
rhumerus -43.1584 19.3216 -89.1404
rradius 34.4132
rwrist -17.919
rhand -31.8693 -20.114
rfingers 7.12502
rthumb -5.12255 -50.032
lclavicle 1.66606e-014 1.66979e-014
lhumerus -42.8824 -10.4386 92.7721
lradius 26.5374
lwrist 4.84737
lhand -12.7099 -20.024
lfingers 7.12502
lthumb 13.3728 9.52688
rfemur -16.9761 1.42875 29.2425
rtibia 26.8514
rfoot -14.9268 -0.340613
rtoes -7.59069
lfemur -17.4283 14.2725 -13.5471
ltibia 66.9249
lfoot -5.44691 11.657
ltoes 6.62325
6
root 8.19884 16.269 -30.6224 3.68989 5.03484 -2.26101
lowerback -5.69234 -0.884933 -1.43729
upperback -0.104774 -1.19252 3.34965
thorax 3.18803 -0.641264 4.17801
lowerneck -21.817 -5.84565 -13.6357
upperneck 20.2645 -7.11564 13.7666
head 11.206 -2.68742 6.2137
rclavicle 2.12451e-014 -3.33958e-014
rhumerus -42.5359 19.8285 -89.1643
rradius 34.5371
rwrist -17.7958
rhand -27.6113 -24.7421
rfingers 7.12502
rthumb -1.01046 -54.7195
lclavicle 2.12451e-014 -3.33958e-014
lhumerus -43.1714 -10.0429 92.1308
lradius 26.8406
lwrist 5.67806
lhand -12.2357 -20.4324
lfingers 7.12502
lthumb 13.8299 9.08779
rfemur -16.7529 1.4447 29.1994
rtibia 26.8238
rfoot -14.9711 -0.0214578
rtoes -7.75702
lfemur -18.9837 14.2436 -14.0798
ltibia 67.1788
lfoot -2.79559 12.2799
ltoes 19.7859
7
root 8.19656 16.271 -30.5171 3.89556 4.83269 -1.87405
lowerback -5.84721 -0.703327 -1.65331
upperback -0.117853 -0.927282 3.09899
thorax 3.23805 -0.510793 4.06058
lowerneck -21.5814 -5.98315 -13.5627
upperneck 20.0532 -7.36149 13.8247
head 11.1235 -2.79478 6.17194
rclavicle 3.76448e-015 1.43125e-014
rhumerus -41.7337 19.8057 -88.9933
rradius 34.4743
rwrist -17.3847
rhand -25.7718 -26.5709
rfingers 7.12502
rthumb 0.766144 -56.5492
lclavicle 3.76448e-015 1.43125e-014
lhumerus -43.7357 -10.2796 91.7464
lradius 27.5649
lwrist 7.09857
lhand -11.9565 -20.9157
lfingers 7.12502
lthumb 14.099 8.586
rfemur -16.5351 1.60717 28.8103
rtibia 26.8646
rfoot -15.1504 0.236812
rtoes -6.16727
lfemur -20.4013 14.1347 -14.9263
ltibia 67.2278
lfoot -8.54564 11.5795
ltoes -2.47953
8
root 8.19215 16.2658 -30.4153 4.00008 4.36805 -1.93803
lowerback -5.80529 -0.459728 -1.49336
upperback -0.180209 -0.609541 3.03444
thorax 3.12072 -0.34678 3.92981
lowerneck -21.5878 -5.99026 -13.5524
upperneck 20.206 -7.39996 13.8605
head 11.1889 -2.80689 6.1841
rclavicle 1.97542e-015 1.66979e-014
rhumerus -41.0123 19.871 -88.8125
rradius 34.4444
rwrist -17.0535
rhand -26.4467 -26.1979
rfingers 7.12502
rthumb 0.114326 -56.1776
lclavicle 1.97542e-015 1.66979e-014
lhumerus -44.3704 -10.434 91.5643
lradius 28.237
lwrist 8.26276
lhand -12.4264 -21.4259
lfingers 7.12502
lthumb 13.6461 8.10681
rfemur -16.2937 1.84532 28.9202
rtibia 26.9456
rfoot -15.4664 0.482866
rtoes -4.61281
lfemur -21.7709 14.2953 -15.2259
ltibia 67.221
lfoot -8.98258 10.8366
ltoes 0.59417
9
root 8.1888 16.2535 -30.3253 4.03622 3.77889 -2.37709
lowerback -5.59936 -0.190081 -1.0463
upperback -0.27235 -0.282237 3.23535
thorax 2.88257 -0.174128 3.91229
lowerneck -21.5898 -5.98611 -13.8667
upperneck 20.4017 -7.30503 13.856
head 11.2588 -2.78965 6.26202
rclavicle -3.44146e-015 7.15625e-015
rhumerus -40.4191 20.1921 -88.4164
rradius 34.5655
rwrist -16.9015
rhand -27.3382 -25.7118
rfingers 7.12502
rthumb -0.746772 -55.6903
lclavicle -3.44146e-015 7.15625e-015
lhumerus -44.7111 -10.0504 91.4619
lradius 28.455
lwrist 8.83525
lhand -12.7852 -21.7051
lfingers 7.12502
lthumb 13.3003 7.85044
rfemur -16.0478 1.97232 29.4502
rtibia 27.0271
rfoot -15.756 0.89457
rtoes -4.51022
lfemur -23.1662 14.5635 -15.1089
ltibia 67.1588
lfoot -9.902 10.7563
ltoes -0.441444
10
root 8.18437 16.2426 -30.2344 4.00296 3.51641 -2.63973
lowerback -5.34856 -0.0217168 -0.853522
upperback -0.321098 -0.0718935 3.43639
thorax 2.6757 -0.0646128 4.02755
lowerneck -21.3369 -6.05432 -14.2414
upperneck 20.2104 -7.29336 13.8721
head 11.1539 -2.82145 6.32699
rclavicle 1.00262e-014 1.35174e-014
rhumerus -39.9374 20.3241 -87.8323
rradius 35.0772
rwrist -16.8068
rhand -27.5143 -26.2687
rfingers 7.12502
rthumb -0.916803 -56.2465
lclavicle 1.00262e-014 1.35174e-014
lhumerus -45.1512 -9.95757 91.5146
lradius 28.9287
lwrist 9.48281
lhand -13.1173 -21.3699
lfingers 7.12502
lthumb 12.9802 8.20632
rfemur -15.6587 2.19041 29.7958
rtibia 27.0675
rfoot -16.1749 0.860641
rtoes -6.94214
lfemur -24.4771 14.4868 -15.1398
ltibia 66.9486
lfoot -10.9048 10.5905
ltoes -1.31623
